<?xml version="1.0" encoding="UTF-8" standalone="no"?>
<!-- Created with Inkscape (http://www.inkscape.org/) -->
<svg
   xmlns:dc="http://purl.org/dc/elements/1.1/"
   xmlns:cc="http://web.resource.org/cc/"
   xmlns:rdf="http://www.w3.org/1999/02/22-rdf-syntax-ns#"
   xmlns:svg="http://www.w3.org/2000/svg"
   xmlns="http://www.w3.org/2000/svg"
   xmlns:xlink="http://www.w3.org/1999/xlink"
   xmlns:sodipodi="http://sodipodi.sourceforge.net/DTD/sodipodi-0.dtd"
   xmlns:inkscape="http://www.inkscape.org/namespaces/inkscape"
   width="128"
   height="128"
   id="svg11465"
   sodipodi:version="0.32"
   inkscape:version="0.44"
   version="1.0"
   sodipodi:docbase="/home/pinheiro/artwork/Oxygen/theme/svg/actions"
   sodipodi:docname="kontact_contacts.svg">
  <defs
     id="defs11467">
    <radialGradient
       inkscape:collect="always"
       xlink:href="#XMLID_12_"
       id="radialGradient16729"
       gradientUnits="userSpaceOnUse"
       gradientTransform="matrix(0.198406,9.929988e-17,-5.256355e-3,-0.198406,-93.84279,22.97293)"
       cx="336.8938"
       cy="-319.7261"
       r="130.5231" />
    <linearGradient
       inkscape:collect="always"
       xlink:href="#XMLID_7_"
       id="linearGradient3447"
       gradientUnits="userSpaceOnUse"
       gradientTransform="matrix(1.519716,-0.479483,0.479483,1.519716,-597.6613,24.75994)"
       x1="290.9375"
       y1="27.1499"
       x2="233.81979"
       y2="184.0795" />
    <linearGradient
       inkscape:collect="always"
       xlink:href="#radialGradient4035"
       id="linearGradient3443"
       gradientUnits="userSpaceOnUse"
       gradientTransform="matrix(0.301151,-9.602399e-2,9.805796e-2,0.34279,-215.2436,30.43063)"
       x1="73.783409"
       y1="-17.918573"
       x2="59.461929"
       y2="151.13226" />
    <linearGradient
       inkscape:collect="always"
       xlink:href="#radialGradient4029"
       id="linearGradient16743"
       gradientUnits="userSpaceOnUse"
       gradientTransform="matrix(0.133207,-4.247392e-2,4.33736e-2,0.151625,28.14363,53.87361)"
       x1="81.624855"
       y1="-4.6484313"
       x2="73.938446"
       y2="133.6398" />
    <linearGradient
       inkscape:collect="always"
       xlink:href="#XMLID_12_"
       id="linearGradient16741"
       gradientUnits="userSpaceOnUse"
       gradientTransform="matrix(0.12918,-4.118954e-2,4.314469e-2,0.150825,20.79683,30.32008)"
       x1="8.207305"
       y1="219.11998"
       x2="134.41685"
       y2="219.11998" />
    <radialGradient
       gradientTransform="matrix(0.238899,-6.401268e-2,6.401268e-2,0.238899,-49.5543,-73.38964)"
       gradientUnits="userSpaceOnUse"
       r="40.7109"
       cy="8.7803"
       cx="62.292"
       id="radialGradient11445">
      <stop
         id="stop11447"
         style="stop-color:#79B5E5"
         offset="0" />
      <stop
         id="stop11449"
         style="stop-color:#4A8CD9"
         offset="0.7303" />
      <stop
         id="stop11451"
         style="stop-color:#4788D5"
         offset="0.88876778" />
      <stop
         id="stop11457"
         style="stop-color:#79b5e5;stop-opacity:1;"
         offset="1" />
    </radialGradient>
    <radialGradient
       inkscape:collect="always"
       xlink:href="#radialGradient11445"
       id="radialGradient11375"
       gradientUnits="userSpaceOnUse"
       gradientTransform="matrix(0.433565,-9.814901e-2,5.364137e-2,0.236958,77.43783,86.90994)"
       cx="62.292"
       cy="8.7803001"
       r="40.710899"
       fx="62.292"
       fy="8.7803001" />
    <radialGradient
       gradientUnits="userSpaceOnUse"
       gradientTransform="matrix(0.198406,0,-5.256355e-3,-0.198406,-93.84279,22.97293)"
       r="130.5231"
       cy="-319.7261"
       cx="336.8938"
       id="radialGradient4035">
      <stop
         id="stop4037"
         style="stop-color:#A4C0E4"
         offset="0" />
      <stop
         id="stop4039"
         style="stop-color:#6193CF"
         offset="0.6036" />
      <stop
         id="stop4041"
         style="stop-color:#A4C0E4"
         offset="1" />
    </radialGradient>
    <linearGradient
       inkscape:collect="always"
       xlink:href="#radialGradient4035"
       id="linearGradient7294"
       gradientUnits="userSpaceOnUse"
       gradientTransform="matrix(0.216453,-3.884327e-2,3.645922e-2,0.245359,12.2174,59.70296)"
       x1="73.783409"
       y1="-17.918573"
       x2="59.461929"
       y2="151.13226" />
    <radialGradient
       gradientUnits="userSpaceOnUse"
       gradientTransform="matrix(0.198406,0,-5.256355e-3,-0.198406,-452.9859,-58.52922)"
       r="130.5231"
       cy="-319.7261"
       cx="336.8938"
       id="radialGradient4029">
      <stop
         id="stop4031"
         style="stop-color:#A4C0E4"
         offset="0" />
      <stop
         id="stop4033"
         style="stop-color:#6193CF"
         offset="1" />
    </radialGradient>
    <linearGradient
       inkscape:collect="always"
       xlink:href="#radialGradient4029"
       id="linearGradient7297"
       gradientUnits="userSpaceOnUse"
       gradientTransform="matrix(0.216453,-3.884327e-2,3.645922e-2,0.245359,12.10493,59.60872)"
       x1="81.624855"
       y1="-4.6484313"
       x2="73.938446"
       y2="133.6398" />
    <radialGradient
       id="XMLID_12_"
       cx="336.8938"
       cy="-319.7261"
       r="130.5231"
       gradientTransform="matrix(0.198406,0,-5.256355e-3,-0.198406,-93.84279,22.97293)"
       gradientUnits="userSpaceOnUse">
      <stop
         offset="0"
         style="stop-color:#A4C0E4"
         id="stop44" />
      <stop
         offset="0.6036"
         style="stop-color:#6193CF"
         id="stop46" />
      <stop
         offset="1"
         style="stop-color:#A4C0E4"
         id="stop48" />
    </radialGradient>
    <linearGradient
       inkscape:collect="always"
       xlink:href="#XMLID_12_"
       id="linearGradient7300"
       gradientUnits="userSpaceOnUse"
       gradientTransform="matrix(0.209908,-3.766857e-2,3.62667e-2,0.244064,5.491511,21.36935)"
       x1="8.207305"
       y1="219.11998"
       x2="134.41685"
       y2="219.11998" />
    <linearGradient
       id="XMLID_7_"
       gradientUnits="userSpaceOnUse"
       x1="290.9375"
       y1="27.1499"
       x2="233.8198"
       y2="184.0795"
       gradientTransform="matrix(0.9659,-0.2588,0.2588,0.9659,-368.9027,-26.63475)">
      <stop
         offset="0"
         style="stop-color:#EEEEEE"
         id="stop785" />
      <stop
         offset="0.2012"
         style="stop-color:#FFFFFF"
         id="stop787" />
      <stop
         offset="0.3969"
         style="stop-color:#F9F9F9"
         id="stop789" />
      <stop
         offset="0.574"
         style="stop-color:#EEEEEE"
         id="stop791" />
      <stop
         offset="0.7988"
         style="stop-color:#FFFFFF"
         id="stop793" />
    </linearGradient>
    <linearGradient
       inkscape:collect="always"
       xlink:href="#XMLID_7_"
       id="linearGradient2869"
       gradientUnits="userSpaceOnUse"
       gradientTransform="matrix(1.063194,-0.187457,0.187457,1.063194,-241.7565,23.70027)"
       x1="290.9375"
       y1="27.1499"
       x2="233.8198"
       y2="184.0795" />
    <radialGradient
       inkscape:collect="always"
       xlink:href="#radialGradient11445"
       id="radialGradient1402"
       gradientUnits="userSpaceOnUse"
       gradientTransform="matrix(0.433565,-9.814901e-2,5.364137e-2,0.236958,77.27917,86.35172)"
       cx="62.292"
       cy="8.7803001"
       fx="62.292"
       fy="8.7803001"
       r="40.710899" />
    <linearGradient
       inkscape:collect="always"
       xlink:href="#radialGradient4035"
       id="linearGradient1410"
       gradientUnits="userSpaceOnUse"
       gradientTransform="matrix(0.216453,-3.884327e-2,3.645922e-2,0.245359,12.05874,59.14474)"
       x1="73.783409"
       y1="-17.918573"
       x2="59.461929"
       y2="151.13226" />
    <linearGradient
       inkscape:collect="always"
       xlink:href="#radialGradient4029"
       id="linearGradient1413"
       gradientUnits="userSpaceOnUse"
       gradientTransform="matrix(0.216453,-3.884327e-2,3.645922e-2,0.245359,11.94627,59.0505)"
       x1="81.624855"
       y1="-4.6484313"
       x2="73.938446"
       y2="133.6398" />
    <linearGradient
       inkscape:collect="always"
       xlink:href="#XMLID_12_"
       id="linearGradient1416"
       gradientUnits="userSpaceOnUse"
       gradientTransform="matrix(0.209908,-3.766857e-2,3.62667e-2,0.244064,5.332846,20.81113)"
       x1="8.207305"
       y1="219.11998"
       x2="134.41685"
       y2="219.11998" />
    <linearGradient
       inkscape:collect="always"
       xlink:href="#XMLID_7_"
       id="linearGradient1454"
       gradientUnits="userSpaceOnUse"
       gradientTransform="matrix(1.063194,-0.187457,0.187457,1.063194,-241.9152,23.14205)"
       x1="290.9375"
       y1="27.1499"
       x2="233.8198"
       y2="184.0795" />
    <linearGradient
       inkscape:collect="always"
       xlink:href="#XMLID_7_"
       id="linearGradient8639"
       gradientUnits="userSpaceOnUse"
       gradientTransform="matrix(1.063194,-0.187457,0.187457,1.063194,-241.9152,23.14205)"
       x1="290.9375"
       y1="27.1499"
       x2="233.8198"
       y2="184.0795" />
    <linearGradient
       inkscape:collect="always"
       xlink:href="#XMLID_12_"
       id="linearGradient8641"
       gradientUnits="userSpaceOnUse"
       gradientTransform="matrix(0.209908,-3.766857e-2,3.62667e-2,0.244064,5.332846,20.81113)"
       x1="8.207305"
       y1="219.11998"
       x2="134.41685"
       y2="219.11998" />
    <linearGradient
       inkscape:collect="always"
       xlink:href="#radialGradient4029"
       id="linearGradient8643"
       gradientUnits="userSpaceOnUse"
       gradientTransform="matrix(0.216453,-3.884327e-2,3.645922e-2,0.245359,11.94627,59.0505)"
       x1="81.624855"
       y1="-4.6484313"
       x2="73.938446"
       y2="133.6398" />
    <linearGradient
       inkscape:collect="always"
       xlink:href="#radialGradient4035"
       id="linearGradient8645"
       gradientUnits="userSpaceOnUse"
       gradientTransform="matrix(0.216453,-3.884327e-2,3.645922e-2,0.245359,12.05874,59.14474)"
       x1="73.783409"
       y1="-17.918573"
       x2="59.461929"
       y2="151.13226" />
    <radialGradient
       inkscape:collect="always"
       xlink:href="#radialGradient11445"
       id="radialGradient8647"
       gradientUnits="userSpaceOnUse"
       gradientTransform="matrix(0.433565,-9.814901e-2,5.364137e-2,0.236958,77.27917,86.35172)"
       cx="62.292"
       cy="8.7803001"
       fx="62.292"
       fy="8.7803001"
       r="40.710899" />
    <linearGradient
       inkscape:collect="always"
       xlink:href="#radialGradient4035"
       id="linearGradient8668"
       gradientUnits="userSpaceOnUse"
       gradientTransform="matrix(0.216453,-3.884327e-2,3.645922e-2,0.245359,12.05874,59.14474)"
       x1="73.783409"
       y1="-17.918573"
       x2="59.461929"
       y2="151.13226" />
    <linearGradient
       inkscape:collect="always"
       xlink:href="#radialGradient4029"
       id="linearGradient8671"
       gradientUnits="userSpaceOnUse"
       gradientTransform="matrix(0.216453,-3.884327e-2,3.645922e-2,0.245359,11.94627,59.0505)"
       x1="81.624855"
       y1="-4.6484313"
       x2="73.938446"
       y2="133.6398" />
    <linearGradient
       inkscape:collect="always"
       xlink:href="#XMLID_12_"
       id="linearGradient8674"
       gradientUnits="userSpaceOnUse"
       gradientTransform="matrix(0.209908,-3.766857e-2,3.62667e-2,0.244064,5.332846,20.81113)"
       x1="8.207305"
       y1="219.11998"
       x2="134.41685"
       y2="219.11998" />
    <linearGradient
       inkscape:collect="always"
       xlink:href="#XMLID_7_"
       id="linearGradient8712"
       gradientUnits="userSpaceOnUse"
       gradientTransform="matrix(1.149536,-5.356008e-4,5.356008e-4,1.149536,-133.4079,-2.29198)"
       x1="290.9375"
       y1="27.1499"
       x2="233.8198"
       y2="184.0795" />
    <linearGradient
       inkscape:collect="always"
       xlink:href="#XMLID_7_"
       id="linearGradient10493"
       gradientUnits="userSpaceOnUse"
       gradientTransform="matrix(1.063194,-0.187457,0.187457,1.063194,-241.9152,23.14205)"
       x1="290.9375"
       y1="27.1499"
       x2="233.8198"
       y2="184.0795" />
    <linearGradient
       inkscape:collect="always"
       xlink:href="#XMLID_7_"
       id="linearGradient10497"
       gradientUnits="userSpaceOnUse"
       gradientTransform="matrix(1.063194,-0.187457,0.187457,1.063194,-241.9152,23.14205)"
       x1="290.9375"
       y1="27.1499"
       x2="233.8198"
       y2="184.0795" />
    <linearGradient
       inkscape:collect="always"
       xlink:href="#XMLID_7_"
       id="linearGradient10501"
       gradientUnits="userSpaceOnUse"
       gradientTransform="matrix(1.063194,-0.187457,0.187457,1.063194,-241.9152,23.14205)"
       x1="290.9375"
       y1="27.1499"
       x2="233.8198"
       y2="184.0795" />
    <linearGradient
       inkscape:collect="always"
       xlink:href="#XMLID_12_"
       id="linearGradient10541"
       gradientUnits="userSpaceOnUse"
       gradientTransform="matrix(0.209908,-3.766857e-2,3.62667e-2,0.244064,5.332846,20.81113)"
       x1="8.207305"
       y1="219.11998"
       x2="134.41685"
       y2="219.11998" />
    <linearGradient
       inkscape:collect="always"
       xlink:href="#radialGradient4035"
       id="linearGradient10543"
       gradientUnits="userSpaceOnUse"
       gradientTransform="matrix(0.216453,-3.884327e-2,3.645922e-2,0.245359,12.05874,59.14474)"
       x1="73.783409"
       y1="-17.918573"
       x2="59.461929"
       y2="151.13226" />
    <linearGradient
       inkscape:collect="always"
       xlink:href="#radialGradient4029"
       id="linearGradient10545"
       gradientUnits="userSpaceOnUse"
       gradientTransform="matrix(0.216453,-3.884327e-2,3.645922e-2,0.245359,11.94627,59.0505)"
       x1="81.624855"
       y1="-4.6484313"
       x2="73.938446"
       y2="133.6398" />
    <linearGradient
       inkscape:collect="always"
       xlink:href="#XMLID_7_"
       id="linearGradient2008"
       gradientUnits="userSpaceOnUse"
       gradientTransform="matrix(1.149537,-5.356009e-4,5.356009e-4,1.149537,-248.6347,-33.88916)"
       x1="290.9375"
       y1="27.1499"
       x2="233.8198"
       y2="184.0795" />
  </defs>
  <sodipodi:namedview
     id="base"
     pagecolor="#ffffff"
     bordercolor="#666666"
     borderopacity="1.0"
     inkscape:pageopacity="0.0"
     inkscape:pageshadow="2"
     inkscape:zoom="2"
     inkscape:cx="69.899109"
     inkscape:cy="29.850784"
     inkscape:current-layer="layer1"
     showgrid="false"
     inkscape:document-units="px"
     inkscape:grid-bbox="true"
     inkscape:window-width="954"
     inkscape:window-height="688"
     inkscape:window-x="330"
     inkscape:window-y="112"
     fill="#b1d28f"
     showguides="true"
     inkscape:guide-bbox="true" />
  <metadata
     id="metadata11470">
    <rdf:RDF>
      <cc:Work
         rdf:about="">
        <dc:format>image/svg+xml</dc:format>
        <dc:type
           rdf:resource="http://purl.org/dc/dcmitype/StillImage" />
      </cc:Work>
    </rdf:RDF>
  </metadata>
  <g
     id="layer1"
     inkscape:label="Layer 1"
     inkscape:groupmode="layer">
    <g
       id="g2908">
      <path
         style="opacity:0.15;fill:none;stroke:black;stroke-width:4.50326252;stroke-linecap:round;stroke-linejoin:round;stroke-miterlimit:4;stroke-dasharray:none;stroke-opacity:1"
         d="M 122.14024,21.546154 C 121.68437,21.546399 115.46485,21.549016 106.64742,21.553264 L 106.64115,26.311543 C 109.89801,27.382867 112.23195,30.44153 112.21871,34.054036 C 112.20229,38.543335 108.55841,42.174819 104.0691,42.158386 C 99.579782,42.141952 95.948551,38.496707 95.964985,34.007387 C 95.976667,30.815761 97.836333,28.051574 100.519,26.730045 L 100.51115,21.556236 C 90.941748,21.560843 79.477179,21.566733 67.472749,21.57254 L 67.466748,26.426627 C 70.723631,27.497949 73.057808,30.555229 73.044592,34.167722 C 73.028155,38.657044 69.382901,42.288275 64.893572,42.27185 C 60.404274,42.255408 56.774431,38.610397 56.790856,34.121085 C 56.802533,30.929459 58.660799,28.165026 61.343472,26.843499 L 61.334857,21.576648 C 49.507951,21.582358 37.894133,21.586987 28.296676,21.591562 L 28.291238,26.540083 C 31.54812,27.611405 33.882304,30.668684 33.86906,34.281176 C 33.852632,38.770497 30.208778,42.401974 25.719441,42.385548 C 21.230141,42.369117 17.598885,38.723857 17.615346,34.234541 C 17.627021,31.042914 19.486669,28.278725 22.169341,26.957198 L 22.161782,21.594781 C 12.659013,21.599315 5.9100115,21.601809 5.434071,21.602004 C 5.4350559,23.640671 5.9213278,112.01837 5.9223103,114.05704 C 7.9874737,114.05484 120.56388,114.00119 122.62848,114.00119 C 122.6278,111.96141 122.14091,23.585925 122.14024,21.546154 z "
         id="path1936" />
      <path
         id="path1938"
         d="M 122.14024,21.546154 C 121.68437,21.546399 115.46485,21.549016 106.64742,21.553264 L 106.64115,26.311543 C 109.89801,27.382867 112.23195,30.44153 112.21871,34.054036 C 112.20229,38.543335 108.55841,42.174819 104.0691,42.158386 C 99.579782,42.141952 95.948551,38.496707 95.964985,34.007387 C 95.976667,30.815761 97.836333,28.051574 100.519,26.730045 L 100.51115,21.556236 C 90.941748,21.560843 79.477179,21.566733 67.472749,21.57254 L 67.466748,26.426627 C 70.723631,27.497949 73.057808,30.555229 73.044592,34.167722 C 73.028155,38.657044 69.382901,42.288275 64.893572,42.27185 C 60.404274,42.255408 56.774431,38.610397 56.790856,34.121085 C 56.802533,30.929459 58.660799,28.165026 61.343472,26.843499 L 61.334857,21.576648 C 49.507951,21.582358 37.894133,21.586987 28.296676,21.591562 L 28.291238,26.540083 C 31.54812,27.611405 33.882304,30.668684 33.86906,34.281176 C 33.852632,38.770497 30.208778,42.401974 25.719441,42.385548 C 21.230141,42.369117 17.598885,38.723857 17.615346,34.234541 C 17.627021,31.042914 19.486669,28.278725 22.169341,26.957198 L 22.161782,21.594781 C 12.659013,21.599315 5.9100115,21.601809 5.434071,21.602004 C 5.4350559,23.640671 5.9213278,112.01837 5.9223103,114.05704 C 7.9874737,114.05484 120.56388,114.00119 122.62848,114.00119 C 122.6278,111.96141 122.14091,23.585925 122.14024,21.546154 z "
         style="opacity:0.2;fill:none;stroke:black;stroke-width:2.92712069;stroke-linecap:round;stroke-linejoin:round;stroke-miterlimit:4;stroke-dasharray:none;stroke-opacity:1" />
      <path
         id="path1940"
         d="M 121.77472,21.024647 C 121.31883,21.024892 115.09931,21.027506 106.28189,21.031756 L 106.27561,25.790035 C 109.53247,26.861358 111.8664,29.920017 111.8532,33.532529 C 111.83674,38.021825 108.19288,41.653311 103.70356,41.636877 C 99.214247,41.620443 95.583016,37.975198 95.59945,33.485878 C 95.611131,30.294251 97.470798,27.530066 100.15346,26.208536 L 100.14561,21.034726 C 90.576213,21.039333 79.111644,21.045224 67.107214,21.05103 L 67.101212,25.905116 C 70.358096,26.97644 72.692273,30.033719 72.679057,33.646215 C 72.66262,38.135535 69.017368,41.766766 64.528037,41.750341 C 60.038738,41.733899 56.408896,38.088887 56.425322,33.599577 C 56.436996,30.407951 58.295263,27.643517 60.977938,26.32199 L 60.969321,21.05514 C 49.142417,21.060848 37.528598,21.065476 27.93114,21.070055 L 27.925702,26.018573 C 31.182584,27.089894 33.51677,30.147176 33.503525,33.759667 C 33.487095,38.248989 29.843242,41.880465 25.353906,41.86404 C 20.864605,41.847608 17.233349,38.202347 17.249811,33.713032 C 17.261486,30.521407 19.121132,27.757214 21.803806,26.43569 L 21.796247,21.073271 C 12.293478,21.077806 5.5444757,21.080302 5.0685355,21.080495 C 5.0695204,23.119162 5.5557921,111.49686 5.5567757,113.53553 C 7.6219387,113.53332 120.19836,113.47968 122.26293,113.47968 C 122.26224,111.4399 121.77539,23.064417 121.77472,21.024647 z "
         style="opacity:0.25;fill:none;stroke:black;stroke-width:2.25163126;stroke-linecap:round;stroke-linejoin:round;stroke-miterlimit:4;stroke-dasharray:none;stroke-opacity:1" />
      <path
         style="opacity:0.3;fill:none;stroke:black;stroke-width:1.12581563;stroke-linecap:round;stroke-linejoin:round;stroke-miterlimit:4;stroke-dasharray:none;stroke-opacity:1"
         d="M 121.77472,21.024647 C 121.31883,21.024892 115.09931,21.027506 106.28189,21.031756 L 106.27561,25.790035 C 109.53247,26.861358 111.8664,29.920017 111.8532,33.532529 C 111.83674,38.021825 108.19288,41.653311 103.70356,41.636877 C 99.214247,41.620443 95.583016,37.975198 95.59945,33.485878 C 95.611131,30.294251 97.470798,27.530066 100.15346,26.208536 L 100.14561,21.034726 C 90.576213,21.039333 79.111644,21.045224 67.107214,21.05103 L 67.101212,25.905116 C 70.358096,26.97644 72.692273,30.033719 72.679057,33.646215 C 72.66262,38.135535 69.017368,41.766766 64.528037,41.750341 C 60.038738,41.733899 56.408896,38.088887 56.425322,33.599577 C 56.436996,30.407951 58.295263,27.643517 60.977938,26.32199 L 60.969321,21.05514 C 49.142417,21.060848 37.528598,21.065476 27.93114,21.070055 L 27.925702,26.018573 C 31.182584,27.089894 33.51677,30.147176 33.503525,33.759667 C 33.487095,38.248989 29.843242,41.880465 25.353906,41.86404 C 20.864605,41.847608 17.233349,38.202347 17.249811,33.713032 C 17.261486,30.521407 19.121132,27.757214 21.803806,26.43569 L 21.796247,21.073271 C 12.293478,21.077806 5.5444757,21.080302 5.0685355,21.080495 C 5.0695204,23.119162 5.5557921,111.49686 5.5567757,113.53553 C 7.6219387,113.53332 120.19836,113.47968 122.26293,113.47968 C 122.26224,111.4399 121.77539,23.064417 121.77472,21.024647 z "
         id="path1942" />
      <path
         id="path1944"
         d="M 121.40917,20.503135 C 120.9533,20.503383 114.73377,20.505997 105.91635,20.510246 L 105.91008,25.268528 C 109.16694,26.33985 111.50087,29.398509 111.48764,33.011016 C 111.47122,37.500319 107.82735,41.131803 103.33803,41.115369 C 98.848711,41.098934 95.21748,37.45369 95.233913,32.96437 C 95.245595,29.772744 97.105262,27.008555 99.787922,25.687028 L 99.780077,20.513218 C 90.210678,20.517824 78.746109,20.523716 66.741679,20.529523 L 66.735677,25.383608 C 69.99256,26.454931 72.326736,29.51221 72.313521,33.124707 C 72.297085,37.614026 68.651832,41.245257 64.162502,41.228832 C 59.673203,41.212391 56.04336,37.567379 56.059786,33.078067 C 56.07146,29.886441 57.929728,27.122008 60.612402,25.800483 L 60.603785,20.533631 C 48.776879,20.539341 37.163061,20.543969 27.565603,20.548545 L 27.560167,25.497064 C 30.817049,26.568387 33.151235,29.625666 33.137989,33.238158 C 33.12156,37.727478 29.477708,41.358958 24.98837,41.342531 C 20.49907,41.326099 16.867814,37.680839 16.884276,33.191524 C 16.89595,29.999898 18.755596,27.235707 21.438271,25.914181 L 21.430712,20.551762 C 11.927942,20.556295 5.1789402,20.558793 4.7029999,20.558986 C 4.7039849,22.597653 5.1902555,110.97535 5.191238,113.01403 C 7.2564069,113.0118 119.83283,112.95818 121.8974,112.95817 C 121.89671,110.9184 121.40984,22.542906 121.40917,20.503135 z "
         style="fill:url(#linearGradient2008);stroke:none;stroke-width:1.05700004;stroke-miterlimit:4;stroke-dasharray:none;stroke-opacity:1" />
      <path
         style="fill:black;stroke:none;stroke-width:1.05700004;stroke-miterlimit:4;stroke-dasharray:none;stroke-opacity:1;fill-opacity:0.11788618"
         d="M 121.40917,20.503135 C 120.9533,20.503383 114.73377,20.505997 105.91635,20.510246 L 105.91008,25.268528 C 109.16694,26.33985 111.50087,29.398509 111.48764,33.011016 C 111.47122,37.500319 107.82735,41.131803 103.33803,41.115369 C 98.848711,41.098934 95.21748,37.45369 95.233913,32.96437 C 95.245595,29.772744 97.105262,27.008555 99.787922,25.687028 L 99.780077,20.513218 C 90.210678,20.517824 78.746109,20.523716 66.741679,20.529523 L 66.735677,25.383608 C 69.99256,26.454931 72.326736,29.51221 72.313521,33.124707 C 72.297085,37.614026 68.651832,41.245257 64.162502,41.228832 C 59.673203,41.212391 56.04336,37.567379 56.059786,33.078067 C 56.07146,29.886441 57.929728,27.122008 60.612402,25.800483 L 60.603785,20.533631 C 48.776879,20.539341 37.163061,20.543969 27.565603,20.548545 L 27.560167,25.497064 C 30.817049,26.568387 33.151235,29.625666 33.137989,33.238158 C 33.12156,37.727478 29.477708,41.358958 24.98837,41.342531 C 20.49907,41.326099 16.867814,37.680839 16.884276,33.191524 C 16.89595,29.999898 18.755596,27.235707 21.438271,25.914181 L 21.430712,20.551762 C 11.927942,20.556295 5.1789402,20.558793 4.7029999,20.558986 C 4.7039849,22.597653 5.1902555,110.97535 5.191238,113.01403 C 7.2564069,113.0118 119.83283,112.95818 121.8974,112.95817 C 121.89671,110.9184 121.40984,22.542906 121.40917,20.503135 z "
         id="path2906" />
    </g>
    <g
       id="g2916"
       transform="translate(-112.5,-29.5)">
      <path
         id="path5299"
         d="M 237.36698,53.143333 C 236.91112,53.143578 230.69159,53.146195 221.87416,53.150442 L 221.86789,57.908722 C 225.12476,58.980045 227.45869,62.038707 227.44545,65.651213 C 227.42903,70.140512 223.78516,73.771995 219.29585,73.755563 C 214.80653,73.739129 211.1753,70.093884 211.19173,65.604565 C 211.20341,62.412938 213.06308,59.648752 215.74574,58.327223 L 215.73789,53.153414 C 206.16849,53.158021 194.70393,53.163912 182.6995,53.169718 L 182.6935,58.023805 C 185.95038,59.095127 188.28455,62.152406 188.27134,65.764899 C 188.2549,70.254221 184.60965,73.885452 180.12032,73.869026 C 175.63102,73.852585 172.00118,70.207573 172.0176,65.718263 C 172.02928,62.526636 173.88755,59.762204 176.57022,58.440677 L 176.5616,53.173826 C 164.7347,53.179537 153.12088,53.184165 143.52343,53.188741 L 143.51799,58.137261 C 146.77487,59.208582 149.10905,62.265861 149.09581,65.878353 C 149.07938,70.367674 145.43553,73.999151 140.94619,73.982724 C 136.45689,73.966294 132.82564,70.321034 132.8421,65.831718 C 132.85377,62.640091 134.71342,59.875903 137.39609,58.554376 L 137.38853,53.191959 C 127.88577,53.196493 121.13677,53.198987 120.66082,53.199183 C 120.66181,55.237849 121.14808,143.61554 121.14906,145.65421 C 123.21423,145.65201 235.79062,145.59836 237.85522,145.59836 C 237.85454,143.55858 237.36765,55.183103 237.36698,53.143333 z "
         style="opacity:0.15;fill:none;stroke:black;stroke-width:4.50326204;stroke-linecap:round;stroke-linejoin:round;stroke-miterlimit:4;stroke-dasharray:none;stroke-opacity:1" />
      <path
         style="opacity:0.2;fill:none;stroke:black;stroke-width:2.92712021;stroke-linecap:round;stroke-linejoin:round;stroke-miterlimit:4;stroke-dasharray:none;stroke-opacity:1"
         d="M 237.36698,53.143333 C 236.91112,53.143578 230.69159,53.146195 221.87416,53.150442 L 221.86789,57.908722 C 225.12476,58.980045 227.45869,62.038707 227.44545,65.651213 C 227.42903,70.140512 223.78516,73.771995 219.29585,73.755563 C 214.80653,73.739129 211.1753,70.093884 211.19173,65.604565 C 211.20341,62.412938 213.06308,59.648752 215.74574,58.327223 L 215.73789,53.153414 C 206.16849,53.158021 194.70393,53.163912 182.6995,53.169718 L 182.6935,58.023805 C 185.95038,59.095127 188.28455,62.152406 188.27134,65.764899 C 188.2549,70.254221 184.60965,73.885452 180.12032,73.869026 C 175.63102,73.852585 172.00118,70.207573 172.0176,65.718263 C 172.02928,62.526636 173.88755,59.762204 176.57022,58.440677 L 176.5616,53.173826 C 164.7347,53.179537 153.12088,53.184165 143.52343,53.188741 L 143.51799,58.137261 C 146.77487,59.208582 149.10905,62.265861 149.09581,65.878353 C 149.07938,70.367674 145.43553,73.999151 140.94619,73.982724 C 136.45689,73.966294 132.82564,70.321034 132.8421,65.831718 C 132.85377,62.640091 134.71342,59.875903 137.39609,58.554376 L 137.38853,53.191959 C 127.88577,53.196493 121.13677,53.198987 120.66082,53.199183 C 120.66181,55.237849 121.14808,143.61554 121.14906,145.65421 C 123.21423,145.65201 235.79062,145.59836 237.85522,145.59836 C 237.85454,143.55858 237.36765,55.183103 237.36698,53.143333 z "
         id="path5301" />
      <path
         style="opacity:0.25;fill:none;stroke:black;stroke-width:2.25163102;stroke-linecap:round;stroke-linejoin:round;stroke-miterlimit:4;stroke-dasharray:none;stroke-opacity:1"
         d="M 237.00146,52.621826 C 236.54558,52.622071 230.32605,52.624685 221.50863,52.628934 L 221.50235,57.387213 C 224.75922,58.458536 227.09314,61.517195 227.07994,65.129706 C 227.06349,69.619002 223.41963,73.250487 218.93031,73.234053 C 214.44099,73.21762 210.80976,69.572375 210.82619,65.083055 C 210.83788,61.891429 212.69754,59.127243 215.3802,57.805714 L 215.37236,52.631905 C 205.80296,52.636511 194.33839,52.642403 182.33396,52.648209 L 182.32796,57.502294 C 185.58484,58.573618 187.91902,61.630897 187.9058,65.243392 C 187.88937,69.732711 184.24411,73.363943 179.75478,73.347517 C 175.26549,73.331076 171.63564,69.686064 171.65207,65.196754 C 171.66374,62.005128 173.52201,59.240695 176.20469,57.919168 L 176.19607,52.652319 C 164.36917,52.658026 152.75535,52.662655 143.15789,52.667233 L 143.15245,57.615751 C 146.40933,58.687072 148.74352,61.744353 148.73028,65.356844 C 148.71385,69.846166 145.06999,73.477642 140.58066,73.461216 C 136.09136,73.444784 132.4601,69.799524 132.47656,65.31021 C 132.48824,62.118584 134.34788,59.354392 137.03056,58.032868 L 137.023,52.670449 C 127.52023,52.674984 120.77123,52.677481 120.29529,52.677674 C 120.29627,54.71634 120.78255,143.09403 120.78353,145.1327 C 122.84869,145.13049 235.4251,145.07685 237.48967,145.07685 C 237.48899,143.03707 237.00213,54.661595 237.00146,52.621826 z "
         id="path5297" />
      <path
         id="path4422"
         d="M 237.00146,52.621826 C 236.54558,52.622071 230.32605,52.624685 221.50863,52.628934 L 221.50235,57.387213 C 224.75922,58.458536 227.09314,61.517195 227.07994,65.129706 C 227.06349,69.619002 223.41963,73.250487 218.93031,73.234053 C 214.44099,73.21762 210.80976,69.572375 210.82619,65.083055 C 210.83788,61.891429 212.69754,59.127243 215.3802,57.805714 L 215.37236,52.631905 C 205.80296,52.636511 194.33839,52.642403 182.33396,52.648209 L 182.32796,57.502294 C 185.58484,58.573618 187.91902,61.630897 187.9058,65.243392 C 187.88937,69.732711 184.24411,73.363943 179.75478,73.347517 C 175.26549,73.331076 171.63564,69.686064 171.65207,65.196754 C 171.66374,62.005128 173.52201,59.240695 176.20469,57.919168 L 176.19607,52.652319 C 164.36917,52.658026 152.75535,52.662655 143.15789,52.667233 L 143.15245,57.615751 C 146.40933,58.687072 148.74352,61.744353 148.73028,65.356844 C 148.71385,69.846166 145.06999,73.477642 140.58066,73.461216 C 136.09136,73.444784 132.4601,69.799524 132.47656,65.31021 C 132.48824,62.118584 134.34788,59.354392 137.03056,58.032868 L 137.023,52.670449 C 127.52023,52.674984 120.77123,52.677481 120.29529,52.677674 C 120.29627,54.71634 120.78255,143.09403 120.78353,145.1327 C 122.84869,145.13049 235.4251,145.07685 237.48967,145.07685 C 237.48899,143.03707 237.00213,54.661595 237.00146,52.621826 z "
         style="opacity:0.3;fill:none;stroke:black;stroke-width:1.12581551;stroke-linecap:round;stroke-linejoin:round;stroke-miterlimit:4;stroke-dasharray:none;stroke-opacity:1" />
      <path
         style="fill:url(#linearGradient8712);stroke:none;stroke-width:1.05700004;stroke-miterlimit:4;stroke-dasharray:none;stroke-opacity:1"
         d="M 236.63591,52.100313 C 236.18004,52.100561 229.96052,52.103175 221.14309,52.107425 L 221.13682,56.865706 C 224.39368,57.937028 226.72761,60.995687 226.71439,64.608193 C 226.69797,69.097496 223.0541,72.728979 218.56477,72.712545 C 214.07546,72.69611 210.44422,69.050867 210.46066,64.561547 C 210.47234,61.369922 212.33201,58.605733 215.01467,57.284206 L 215.00682,52.110397 C 205.43742,52.115003 193.97286,52.120895 181.96843,52.126702 L 181.96242,56.980786 C 185.21931,58.052109 187.55348,61.109388 187.54027,64.721884 C 187.52383,69.211203 183.87858,72.842433 179.38925,72.826009 C 174.89995,72.809568 171.27011,69.164556 171.28653,64.675244 C 171.29821,61.483619 173.15648,58.719186 175.83915,57.397661 L 175.83053,52.13081 C 164.00363,52.136519 152.38981,52.141148 142.79235,52.145723 L 142.78692,57.094243 C 146.0438,58.165565 148.37799,61.222844 148.36474,64.835335 C 148.34831,69.324655 144.70446,72.956134 140.21512,72.939708 C 135.72582,72.923275 132.09457,69.278016 132.11103,64.788701 C 132.1227,61.597075 133.98235,58.832885 136.66502,57.511359 L 136.65746,52.148941 C 127.15469,52.153474 120.40569,52.155972 119.92975,52.156165 C 119.93074,54.194831 120.41701,142.57252 120.41799,144.6112 C 122.48316,144.60897 235.05957,144.55535 237.12414,144.55534 C 237.12346,142.51557 236.63658,54.140084 236.63591,52.100313 z "
         id="path2867" />
      <path
         id="rect5303"
         d="M 232.28334,76.146701 L 231.16729,76.153173 L 124.84628,76.918458 L 123.73023,76.924929 L 123.74247,78.008202 L 124.19093,139.44073 L 124.17615,140.48547 L 125.28644,140.51177 L 231.64023,139.75224 L 232.7235,139.74002 L 232.70551,138.68951 L 232.28981,77.262747 L 232.28334,76.146701 z M 230.10273,78.364724 L 230.49972,137.59218 L 126.37801,138.33875 L 126.32409,129.03838 L 127.23774,129.03011 L 167.2515,128.76834 L 168.26923,128.74458 L 168.23971,127.75962 L 167.90167,79.72539 L 167.89339,78.811738 L 230.10273,78.364724 z M 165.9285,80.763627 L 166.24603,126.80093 L 128.22344,127.07497 L 127.8789,80.999129 L 165.9285,80.763627 z "
         style="opacity:0.46000001;fill:#37a42c;fill-opacity:1;fill-rule:nonzero;stroke:none;stroke-width:2.0570004;stroke-linecap:butt;stroke-linejoin:miter;stroke-miterlimit:4;stroke-dasharray:none;stroke-dashoffset:4;stroke-opacity:1" />
      <text
         transform="matrix(0.999918,-1.277745e-2,1.277745e-2,0.999918,0,0)"
         sodipodi:linespacing="125%"
         id="text10503"
         y="100.10671"
         x="172.19397"
         style="font-size:6.59246969px;font-style:normal;font-variant:normal;font-weight:normal;font-stretch:normal;text-align:start;line-height:125%;writing-mode:lr-tb;text-anchor:start;fill:#006e29;fill-opacity:1;stroke:none;stroke-width:1px;stroke-linecap:butt;stroke-linejoin:miter;stroke-opacity:1;font-family:Luxi Sans"
         xml:space="preserve"><tspan
           y="100.10671"
           x="172.19397"
           id="tspan10505"
           sodipodi:role="line">Oxygen Icons</tspan><tspan
           id="tspan10507"
           y="108.3473"
           x="172.19397"
           sodipodi:role="line">1100 Sea of Colors</tspan><tspan
           id="tspan10509"
           y="116.58789"
           x="172.19397"
           sodipodi:role="line">World</tspan></text>
      <g
         transform="matrix(1.474725,0.227796,-0.212977,1.362381,120.3978,2.57039)"
         id="g10535">
        <g
           id="g10511">
          <path
             id="path3220"
             style="fill:url(#linearGradient10541);fill-opacity:1;stroke:none;stroke-width:2;stroke-miterlimit:4;stroke-dasharray:none;stroke-opacity:1"
             d="M 25.730957,56.969284 C 24.022824,57.39872 22.455448,58.5089 21.791544,60.259702 C 21.642295,60.653301 21.647531,60.902882 21.629253,61.282491 C 21.610971,61.662075 21.619148,62.11589 21.654036,62.602896 C 21.721961,63.55095 21.869709,64.631761 22.096011,65.769497 C 22.548979,68.04683 23.206299,70.263402 24.007714,71.520795 C 24.808218,72.776773 25.08551,74.78329 24.834362,75.545775 C 24.522903,76.491386 23.631683,77.428049 21.987955,78.308836 C 20.154138,79.291476 18.718185,80.184335 17.778912,81.515155 C 16.947366,82.693354 16.486005,83.965799 16.706599,85.450326 L 17.032581,87.64409 L 17.185983,88.676456 L 18.07648,88.516653 L 42.787715,84.08213 L 43.67821,83.922328 L 43.524806,82.889961 L 43.198825,80.696199 C 42.978233,79.211669 42.1725,78.166611 41.043094,77.340312 C 39.781547,76.417336 38.155776,76.032089 36.119773,75.739714 C 34.293038,75.477379 33.187951,74.925068 32.626194,74.147502 C 32.167375,73.512422 31.849437,71.5132 32.244791,70.042623 C 32.640599,68.570382 32.622139,66.239161 32.392358,63.921779 C 32.277559,62.764035 32.104766,61.687704 31.894729,60.765166 C 31.786838,60.29126 31.663222,59.85816 31.536011,59.504687 C 31.408795,59.151186 31.341511,58.912741 31.086085,58.591762 C 29.955487,57.171071 28.124389,56.539774 26.343174,56.859419 L 25.786613,56.959297 L 25.758786,56.964291 L 25.730957,56.969284 z " />
          <path
             id="path3271"
             d="M 25.664261,57.096867 C 23.987285,57.540487 22.46396,58.646896 21.810391,60.370475 C 21.661141,60.76406 21.661078,61.012812 21.642797,61.392409 C 21.624519,61.772005 21.638117,62.230347 21.67301,62.717352 C 21.740928,63.665395 21.889066,64.743487 22.115364,65.881222 C 22.21244,66.369273 22.319312,66.853957 22.434441,67.3275 C 23.700105,63.842056 25.710751,60.524604 29.14446,57.243789 C 28.278695,56.896787 27.31256,56.801071 26.360968,56.971839 L 25.806308,57.071374 L 25.772488,57.077444 L 25.745433,57.082301 C 25.743764,57.08272 25.740354,57.083184 25.738668,57.083513 C 25.731892,57.084662 25.718385,57.087219 25.711612,57.088369 C 25.709931,57.088722 25.706512,57.089149 25.704847,57.089582 C 25.691627,57.093001 25.677467,57.093371 25.664261,57.096867 z M 31.775479,60.321904 C 25.642145,67.635402 25.718057,74.501928 26.256802,83.330128 C 33.473192,81.97087 40.700207,79.366509 42.99176,79.909774 C 42.630539,78.88489 41.943953,78.103047 41.057452,77.454458 C 39.795907,76.531481 38.174403,76.142059 36.138394,75.849672 C 34.311662,75.587334 33.206477,75.034291 32.64472,74.256726 C 32.185897,73.621635 31.868723,71.623453 32.264082,70.1529 C 32.659889,68.680648 32.640155,66.351127 32.410374,64.033745 C 32.295576,62.875999 32.123937,61.802124 31.913903,60.879585 C 31.870073,60.687065 31.82426,60.499329 31.775479,60.321904 z M 20.074808,79.535281 C 19.141709,80.147709 18.374337,80.808894 17.795607,81.628881 C 17.273943,82.368024 16.895886,83.14024 16.742576,83.982652 C 17.637742,84.088936 18.582629,84.125727 19.559668,84.106867 C 19.752941,82.537967 19.913172,81.016098 20.074808,79.535281 z "
             style="opacity:0.24590167;fill:url(#linearGradient10543);fill-opacity:1;fill-rule:evenodd;stroke:none;stroke-width:1px;stroke-linecap:butt;stroke-linejoin:miter;stroke-opacity:1" />
        </g>
        <path
           style="opacity:0.17213117;fill:url(#linearGradient10545);fill-opacity:1;fill-rule:evenodd;stroke:none;stroke-width:1px;stroke-linecap:butt;stroke-linejoin:miter;stroke-opacity:1"
           d="M 25.592375,56.995277 C 23.899815,57.431927 22.356632,58.539035 21.697917,60.276169 C 21.548669,60.669754 21.548606,60.918507 21.530322,61.298105 C 21.512045,61.677699 21.525644,62.13604 21.560535,62.623047 C 21.628455,63.571102 21.776591,64.649195 22.002891,65.786917 C 22.455857,68.064247 23.111478,70.279657 23.912898,71.537063 C 24.7134,72.793024 24.991115,74.79829 24.739967,75.560774 C 24.428508,76.506386 23.537171,77.442199 21.893448,78.322986 C 20.059629,79.305627 18.622406,80.203756 17.683135,81.534591 C 17.161469,82.273718 16.783414,83.045934 16.6301,83.888346 C 25.62711,84.956632 39.528143,79.021024 42.879283,79.815469 C 42.518067,78.790585 41.831478,78.008743 40.94498,77.360167 C 39.683429,76.437178 38.06193,76.047753 36.02592,75.755367 C 34.19919,75.493029 33.094005,74.939997 32.532246,74.162421 C 32.073427,73.527341 31.756251,71.529159 32.15161,70.058593 C 32.547414,68.586341 32.527679,66.256821 32.297899,63.93944 C 32.183103,62.781708 32.011467,61.707833 31.801429,60.78528 C 31.693537,60.311374 31.566989,59.873302 31.439773,59.519816 C 31.312563,59.166329 31.247258,58.929308 30.991831,58.608342 C 29.861236,57.187653 28.02971,56.557887 26.248494,56.877532 L 25.693835,56.977069 L 25.660016,56.983138 L 25.632958,56.987994 C 25.619616,56.991364 25.605703,56.991854 25.592375,56.995277 z "
           id="path2377" />
      </g>
    </g>
  </g>
</svg>
